<?xml version="1.0" encoding="UTF-8" standalone="no"?>
<!-- Created with Inkscape (http://www.inkscape.org/) -->

<svg
   width="145mm"
   height="205mm"
   viewBox="0 0 145 205"
   version="1.1"
   id="svg1"
   inkscape:version="1.3.2 (091e20ef0f, 2023-11-25, custom)"
   sodipodi:docname="coverK7.svg"
   xmlns:inkscape="http://www.inkscape.org/namespaces/inkscape"
   xmlns:sodipodi="http://sodipodi.sourceforge.net/DTD/sodipodi-0.dtd"
   xmlns="http://www.w3.org/2000/svg"
   xmlns:svg="http://www.w3.org/2000/svg">
  <sodipodi:namedview
     id="namedview1"
     pagecolor="#a15b30"
     bordercolor="#666666"
     borderopacity="1.0"
     inkscape:showpageshadow="2"
     inkscape:pageopacity="0.0"
     inkscape:pagecheckerboard="0"
     inkscape:deskcolor="#d1d1d1"
     inkscape:document-units="mm"
     showguides="true"
     inkscape:zoom="1.598011"
     inkscape:cx="315.39207"
     inkscape:cy="426.46765"
     inkscape:window-width="3840"
     inkscape:window-height="2112"
     inkscape:window-x="1280"
     inkscape:window-y="48"
     inkscape:window-maximized="1"
     inkscape:current-layer="layer3"
     showgrid="false">
    <sodipodi:guide
       position="3.0054379,53.169304"
       orientation="1,0"
       id="guide1"
       inkscape:locked="false" />
    <sodipodi:guide
       position="37.150813,9.0002675"
       orientation="0,1"
       id="guide2"
       inkscape:locked="false" />
    <sodipodi:guide
       position="12.233634,196.09795"
       orientation="0,1"
       id="guide3"
       inkscape:locked="false" />
    <sodipodi:guide
       position="72.354268,187.59127"
       orientation="1,0"
       id="guide214"
       inkscape:locked="false" />
  </sodipodi:namedview>
  <defs
     id="defs1" />
  <g
     inkscape:label="Layer 1"
     inkscape:groupmode="layer"
     id="layer1"
     style="display:inline" />
  <g
     inkscape:groupmode="layer"
     id="layer3"
     inkscape:label="Layer 2">
    <path
       d="M 39.5291 31.5909 L 39.5291 29.0539 L 39.4616 28.4317 L 39.095 28.2147 L 38.7694 28.0435 L 38.6609 27.7806 L 38.8442 27.4478 L 39.3747 27.332 L 39.9487 27.3465 L 40.2381 27.3465 L 41.1738 27.3369 L 42.1577 27.2501 L 42.6689 27.2211 L 43.4165 27.3019 L 44.0773 27.5443 L 44.5478 27.865 L 44.884 28.2678 L 45.0857 28.7525 L 45.1529 29.3192 L 44.9648 30.2055 L 44.4004 30.8964 L 43.6167 31.3123 L 42.6834 31.451 L 42.0564 31.4173 L 41.8104 31.4028 L 41.6706 31.562 L 41.6706 31.5909 L 41.7043 32.3819 L 41.7863 32.7292 L 42.095 32.9607 L 42.4085 33.3272 L 42.2927 33.5961 L 41.9455 33.7951 L 40.6336 33.9591 L 39.2952 33.806 L 38.9605 33.6145 L 38.849 33.3465 L 38.9262 33.1247 L 39.2879 32.9028 L 39.4905 32.6472 L 39.5291 31.5909 L 39.5291 31.5909 M 41.7043 28.4414 L 41.7043 30.0812 L 41.7863 30.3079 L 42.1384 30.3754 L 42.6738 30.197 L 42.9089 29.8546 L 42.9873 29.3385 L 42.8956 28.7983 L 42.6207 28.4317 L 42.0612 28.2532 L 41.7935 28.3002 L 41.7043 28.4413 L 41.7043 28.4414 M 48.6352 31.0941 L 48.3988 31.205 L 48.3506 31.7211 L 48.4278 32.6761 L 48.5001 32.8256 L 48.6834 32.9558 L 48.9728 33.3754 L 48.8715 33.6479 L 48.5676 33.8288 L 47.2075 33.959 L 45.8691 33.7902 L 45.5345 33.5792 L 45.423 33.2838 L 45.476 33.1005 L 45.7172 32.9027 L 46.0017 32.5748 L 46.1078 31.914 L 46.132 29.459 L 46.0644 28.5475 L 45.775 28.1954 L 45.4905 28.0121 L 45.4181 27.7902 L 45.5532 27.4816 L 45.939 27.2838 L 46.5082 27.2308 L 47.304 27.279 L 47.685 27.2886 L 48.8426 27.2307 L 49.484 27.1969 L 50.427 27.3211 L 51.1914 27.6937 L 51.6472 28.2291 L 51.7991 28.9381 L 51.5869 29.7484 L 51.0033 30.2934 L 50.849 30.4767 L 51.0853 30.7034 L 51.5242 30.9336 L 51.8281 31.258 L 52.1657 32.3963 L 52.2911 32.8111 L 52.6721 32.9895 L 52.8265 33.1149 L 52.8892 33.3223 L 52.7734 33.6262 L 52.4744 33.8625 L 51.365 34.0506 L 50.5584 33.9264 L 50.0194 33.5538 L 49.7059 32.9943 L 49.4069 31.9429 L 49.1223 31.2966 L 48.6352 31.094 L 48.6352 31.0941 M 48.3554 28.6343 L 48.3024 29.7581 L 48.3024 29.8015 L 48.3506 30.033 L 48.558 30.0909 L 49.1753 29.8738 L 49.3683 29.1697 L 49.2031 28.4715 L 48.7075 28.2388 L 48.4422 28.3256 L 48.3554 28.6343 L 48.3554 28.6343 M 56.6078 27.1439 L 57.7689 27.3212 L 58.7734 27.8529 L 59.3413 28.4124 L 59.7911 29.1166 L 60.0768 29.8883 L 60.1721 30.66 L 59.984 31.738 L 59.4197 32.6954 L 58.6853 33.3501 L 57.7557 33.7902 L 56.4872 33.9928 L 55.6709 33.906 L 54.8908 33.6455 L 54.0696 33.1186 L 53.4486 32.377 L 53.0688 31.5149 L 52.9422 30.5684 L 53.105 29.488 L 53.5933 28.5426 L 54.2722 27.865 L 55.1512 27.3947 L 56.6078 27.1439 L 56.6078 27.1439 M 56.1496 28.5282 L 55.7867 28.6186 L 55.5081 28.8899 L 55.3248 29.5314 L 55.5467 30.795 L 56.1062 32.0635 L 56.4727 32.4397 L 56.9213 32.5796 L 57.2517 32.5109 L 57.5097 32.3047 L 57.7364 31.5812 L 57.5483 30.3224 L 57.0612 29.1696 L 56.6367 28.7066 L 56.1496 28.5282 L 56.1496 28.5282 M 64.127 28.2725 L 63.7171 28.4414 L 63.6061 28.9333 L 63.5579 29.5989 L 63.6737 29.8449 L 64.1078 29.9124 L 64.4213 29.8352 L 64.5611 29.5748 L 64.7299 29.1805 L 65.0145 29.0491 L 65.2719 29.1371 L 65.4558 29.4012 L 65.6029 30.4574 L 65.539 31.2315 L 65.3473 31.7693 L 64.9229 32.0249 L 64.6986 31.9296 L 64.5949 31.6439 L 64.5322 31.2966 L 64.3971 31.1037 L 63.9341 30.9542 L 63.6399 31.0314 L 63.5724 31.3256 L 63.5676 31.7741 L 63.7412 32.7918 L 63.857 32.8883 L 64.1753 32.9462 L 64.3875 33.0764 L 64.4743 33.332 L 64.3658 33.6371 L 64.0403 33.8095 L 62.2798 33.959 L 60.9101 33.8433 L 60.6351 33.6503 L 60.529 33.3417 L 60.6834 32.9992 L 60.9486 32.8786 L 61.1645 32.7026 L 61.2718 32.3867 L 61.3586 29.6809 L 61.2959 28.4992 L 60.992 28.123 L 60.6737 27.9397 L 60.6014 27.7082 L 60.8088 27.3561 L 61.32 27.2115 L 61.8843 27.2404 L 63.7653 27.3031 L 66.1239 27.2066 L 66.2493 27.197 L 66.5724 27.39 L 66.8907 27.9591 L 66.9968 28.5861 L 66.857 29.0636 L 66.4904 29.242 L 66.2348 29.1745 L 65.7911 28.7019 L 65.2653 28.3739 L 64.1271 28.2726 L 64.127 28.2725 M 68.1206 27.279 L 70.5997 27.279 L 71.6945 27.25 L 72.3698 27.1198 L 72.5289 27.0909 L 72.9727 27.361 L 73.2114 27.8457 L 73.291 28.4221 L 73.1559 28.9188 L 72.7942 29.0973 L 72.5434 29.0346 L 72.3071 28.7404 L 71.7669 28.3111 L 70.701 28.2002 L 70.2548 28.2496 L 70.0257 28.3979 L 69.9486 28.6825 L 69.939 29.5941 L 70.0354 29.9558 L 70.5419 30.0233 L 70.8361 29.9413 L 70.9518 29.6375 L 71.0193 29.2565 L 71.1544 29.0732 L 71.3907 28.9864 L 71.7283 29.1745 L 71.8971 29.6712 L 71.9695 30.4092 L 71.7332 31.6584 L 71.3377 31.9236 L 71.111 31.8417 L 71.0145 31.4896 L 70.8192 31.0808 L 70.3779 30.9446 L 70.0788 31.0844 L 70.0017 31.5909 L 70.0306 32.1793 L 70.0981 32.6519 L 70.3345 32.8545 L 71.0049 32.9076 L 72.0949 32.7243 L 72.693 32.0491 L 72.9341 31.6729 L 73.2187 31.5764 L 73.5515 31.7549 L 73.6865 32.1938 L 73.537 32.9172 L 73.1705 33.6889 L 72.9872 33.906 L 72.8039 33.9638 L 72.5386 33.9349 L 71.7139 33.8626 L 67.6239 33.8626 L 67.2428 33.7564 L 67.1078 33.4478 L 67.1657 33.2452 L 67.4309 33.086 L 67.6432 32.9317 L 67.7541 32.6616 L 67.9132 30.6986 L 67.8554 29.1805 L 67.6817 28.3497 L 67.5756 28.2147 L 67.3345 28.123 L 67.1283 27.9904 L 67.0596 27.7565 L 67.1512 27.4816 L 67.3924 27.3224 L 68.1206 27.279 L 68.1206 27.279 M 76.8601 27.1439 L 78.1624 27.3899 L 78.3167 27.4189 L 78.6061 27.332 L 78.7701 27.3031 L 79.1017 27.4309 L 79.4501 27.8143 L 79.7214 28.3135 L 79.8119 28.7886 L 79.6479 29.2468 L 79.2572 29.4301 L 78.9437 29.3529 L 78.4132 28.8947 L 77.8392 28.4896 L 77.2749 28.3545 L 76.8408 28.4848 L 76.6817 28.8272 L 76.8662 29.195 L 77.4196 29.459 L 78.6977 29.8883 L 79.2358 30.2226 L 79.6201 30.6274 L 79.8507 31.1028 L 79.9276 31.6487 L 79.7178 32.582 L 79.0884 33.3272 L 78.0985 33.8264 L 76.8456 33.9928 L 75.5434 33.8481 L 74.5547 33.5008 L 74.135 32.8304 L 73.9518 31.8175 L 74.0482 31.4606 L 74.3521 31.3063 L 74.7042 31.4944 L 75.1817 32.1745 L 75.746 32.623 L 76.5514 32.8015 L 77.1302 32.6712 L 77.3521 32.3288 L 77.1784 31.996 L 76.6141 31.7355 L 75.5627 31.3401 L 74.8874 30.8819 L 74.3159 30.1608 L 74.1254 29.3481 L 74.3231 28.5233 L 74.8826 27.824 L 75.7821 27.3139 L 76.8601 27.1439 L 76.8601 27.1439 M 83.2315 27.1439 L 84.5337 27.3899 L 84.688 27.4189 L 84.9774 27.332 L 85.1414 27.3031 L 85.473 27.4309 L 85.8215 27.8143 L 86.0928 28.3135 L 86.1832 28.7886 L 86.0192 29.2468 L 85.6286 29.4301 L 85.3151 29.3529 L 84.7845 28.8947 L 84.2106 28.4896 L 83.6463 28.3545 L 83.2122 28.4848 L 83.053 28.8272 L 83.2375 29.195 L 83.7909 29.459 L 85.0691 29.8883 L 85.6072 30.2226 L 85.9915 30.6274 L 86.2221 31.1028 L 86.299 31.6487 L 86.0892 32.582 L 85.4597 33.3272 L 84.4698 33.8264 L 83.217 33.9928 L 81.9147 33.8481 L 80.926 33.5008 L 80.5064 32.8304 L 80.3231 31.8175 L 80.4196 31.4606 L 80.7234 31.3063 L 81.0755 31.4944 L 81.553 32.1745 L 82.1173 32.623 L 82.9228 32.8015 L 83.5016 32.6712 L 83.7234 32.3288 L 83.5498 31.996 L 82.9855 31.7355 L 81.934 31.3401 L 81.2588 30.8819 L 80.6873 30.1608 L 80.4967 29.3481 L 80.6945 28.5233 L 81.254 27.824 L 82.1535 27.3139 L 83.2315 27.1439 L 83.2315 27.1439 M 88.754 27.1777 L 89.7909 27.2742 L 90.2829 27.478 L 90.4469 27.8288 L 90.3793 28.041 L 90.0514 28.2436 L 89.7572 28.7307 L 89.6896 30.197 L 89.7813 32.4783 L 89.8826 32.6953 L 90.1286 32.8545 L 90.3673 33.0318 L 90.4469 33.2741 L 90.2998 33.5997 L 89.8585 33.8047 L 88.3006 33.959 L 87.1213 33.8095 L 86.8265 33.6226 L 86.7282 33.3609 L 87.0369 32.9558 L 87.3167 32.5603 L 87.4083 30.2259 L 87.2829 28.6439 L 86.9598 28.287 L 86.6945 28.07 L 86.627 27.8481 L 86.8247 27.5201 L 87.5337 27.2983 L 88.754 27.1777 L 88.754 27.1777 M 94.479 27.1439 L 95.6402 27.3212 L 96.6446 27.8529 L 97.2125 28.4124 L 97.6623 29.1166 L 97.948 29.8883 L 98.0433 30.66 L 97.8552 31.738 L 97.2909 32.6954 L 96.5566 33.3501 L 95.6269 33.7902 L 94.3584 33.9928 L 93.5421 33.906 L 92.762 33.6455 L 91.9408 33.1186 L 91.3199 32.377 L 90.94 31.5149 L 90.8134 30.5684 L 90.9762 29.488 L 91.4645 28.5426 L 92.1434 27.865 L 93.0224 27.3947 L 94.479 27.1439 L 94.479 27.1439 M 94.0208 28.5282 L 93.6579 28.6186 L 93.3793 28.8899 L 93.1961 29.5314 L 93.4179 30.795 L 93.9774 32.0635 L 94.344 32.4397 L 94.7925 32.5796 L 95.1229 32.5109 L 95.3809 32.3047 L 95.6076 31.5812 L 95.4195 30.3224 L 94.9324 29.1696 L 94.5079 28.7066 L 94.0208 28.5282 L 94.0208 28.5282 M 101.116 27.5105 L 103.518 29.6134 L 104.005 29.9076 L 104.193 29.7737 L 104.255 29.3722 L 104.183 28.5426 L 103.879 28.2098 L 103.614 28.0169 L 103.537 27.7468 L 103.676 27.414 L 104.091 27.2259 L 104.882 27.1777 L 105.89 27.2645 L 106.223 27.4598 L 106.334 27.7758 L 106.244 28.0507 L 105.972 28.2484 L 105.775 28.3594 L 105.683 28.5041 L 105.548 29.7098 L 105.548 31.2822 L 105.553 32.2709 L 105.452 33.496 L 105.268 33.8469 L 104.979 33.9638 L 104.719 33.9011 L 104.362 33.6118 L 101.502 31.0507 L 101.005 30.7806 L 100.784 30.9844 L 100.711 31.5957 L 100.783 32.5121 L 101.092 32.8738 L 101.334 33.0571 L 101.415 33.2886 L 101.325 33.5819 L 101.054 33.7914 L 99.9726 33.959 L 98.9598 33.7902 L 98.6921 33.5816 L 98.6029 33.3031 L 98.6704 33.0571 L 98.9743 32.8352 L 99.2492 32.3577 L 99.3312 30.5684 L 99.1865 28.7549 L 99.0514 28.4462 L 98.7813 28.2533 L 98.4775 28.0459 L 98.3955 27.7999 L 98.5945 27.4225 L 99.1913 27.2163 L 100.137 27.1777 L 100.696 27.2404 L 101.116 27.5105 L 101.116 27.5105"
       id="text214"
       style="font-size:9.87777px;line-height:1.25;font-family:'Cooper Black';-inkscape-font-specification:'Cooper Black, Normal';font-variant-ligatures:none;text-align:center;letter-spacing:0px;word-spacing:0px;text-anchor:middle;stroke-width:0.264583"
       aria-label="PROFESSION" />
    <path
       style="font-size:6.35px;line-height:1.25;font-family:Calibri;-inkscape-font-specification:'Calibri, Normal';font-variant-ligatures:none;text-align:center;letter-spacing:0px;word-spacing:0px;text-anchor:middle;stroke-width:0.264583"
       d="M 56.9847 51.1286 L 56.9723 51.172 L 56.9289 51.203 L 56.8451 51.2185 L 56.718 51.2278 L 56.5909 51.2185 L 56.5072 51.203 L 56.4638 51.172 L 56.4514 51.1286 L 56.4514 47.2777 L 56.4638 47.2343 L 56.5103 47.2064 L 56.594 47.1878 L 56.718 47.1785 L 56.8451 47.1878 L 56.9289 47.2064 L 56.9723 47.2343 L 56.9847 47.2777 L 56.9847 51.1286 M 59.7442 50.3721 L 59.6636 50.7534 L 59.4403 51.0356 L 59.0931 51.2092 L 58.6497 51.2681 L 58.3644 51.2433 L 58.1226 51.1875 L 57.9427 51.1131 L 57.8342 51.0418 L 57.7846 50.955 L 57.7691 50.8031 L 57.7753 50.7038 L 57.7908 50.6387 L 57.8156 50.6046 L 57.8559 50.5922 L 57.9552 50.6356 L 58.1195 50.7255 L 58.352 50.8186 L 58.659 50.8589 L 58.8946 50.831 L 59.0776 50.7504 L 59.1954 50.6108 L 59.2388 50.4124 L 59.1768 50.2139 L 59.0187 50.0713 L 58.7954 49.9628 L 58.5381 49.8605 L 58.2807 49.7427 L 58.0575 49.5783 L 57.8962 49.3489 L 57.8373 49.0295 L 57.8993 48.7164 L 58.0916 48.4528 L 58.4078 48.2699 L 58.8543 48.2017 L 59.0776 48.2203 L 59.2791 48.2668 L 59.431 48.3288 L 59.5272 48.3846 L 59.5706 48.428 L 59.5861 48.4714 L 59.5954 48.5272 L 59.6016 48.611 L 59.5954 48.704 L 59.5799 48.766 L 59.5551 48.8032 L 59.5209 48.8125 L 59.4403 48.7784 L 59.3039 48.7071 L 59.1055 48.6327 L 58.8481 48.5986 L 58.6187 48.6296 L 58.4543 48.7133 L 58.3582 48.8404 L 58.3272 49.0016 L 58.3892 49.2063 L 58.5504 49.3489 L 58.7768 49.4605 L 59.0341 49.5628 L 59.2946 49.6807 L 59.524 49.8388 L 59.6822 50.062 L 59.7442 50.3721 L 59.7442 50.3721 M 62.5781 51.1348 L 62.5533 51.1906 L 62.4851 51.2185 L 62.358 51.2278 L 62.2278 51.2185 L 62.1596 51.1906 L 62.1379 51.1348 L 62.1379 50.8558 L 61.7286 51.1596 L 61.2542 51.2681 L 60.8542 51.2092 L 60.5504 51.0449 L 60.355 50.7782 L 60.2868 50.4186 L 60.3829 50.0093 L 60.6589 49.7209 L 61.0992 49.5504 L 61.6852 49.4915 L 62.0696 49.4915 L 62.0696 49.2745 L 62.0355 48.9892 L 61.9239 48.7846 L 61.7286 48.6605 L 61.4309 48.6171 L 61.0899 48.6636 L 60.8263 48.7629 L 60.6372 48.8621 L 60.5256 48.9055 L 60.4821 48.8931 L 60.448 48.8559 L 60.4294 48.7939 L 60.4232 48.7071 L 60.4325 48.5861 L 60.4852 48.4993 L 60.631 48.4063 L 60.8666 48.3071 L 61.1581 48.2327 L 61.4774 48.2017 L 61.989 48.2699 L 62.3301 48.4714 L 62.5192 48.797 L 62.5781 49.2528 L 62.5781 51.1348 M 62.0696 49.8605 L 61.6324 49.8605 L 61.2666 49.8977 L 61.0092 50.0031 L 60.8573 50.1705 L 60.8108 50.3938 L 60.9472 50.741 L 61.3348 50.8682 L 61.7069 50.7658 L 62.0696 50.4527 L 62.0696 49.8605 M 65.6198 51.1348 L 65.595 51.1906 L 65.5268 51.2185 L 65.3997 51.2278 L 65.2694 51.2185 L 65.2012 51.1906 L 65.1795 51.1348 L 65.1795 50.8558 L 64.7702 51.1596 L 64.2959 51.2681 L 63.8959 51.2092 L 63.592 51.0449 L 63.3967 50.7782 L 63.3285 50.4186 L 63.4246 50.0093 L 63.7005 49.7209 L 64.1408 49.5504 L 64.7268 49.4915 L 65.1113 49.4915 L 65.1113 49.2745 L 65.0772 48.9892 L 64.9656 48.7846 L 64.7702 48.6605 L 64.4726 48.6171 L 64.1315 48.6636 L 63.868 48.7629 L 63.6788 48.8621 L 63.5672 48.9055 L 63.5238 48.8931 L 63.4897 48.8559 L 63.4711 48.7939 L 63.4649 48.7071 L 63.4742 48.5861 L 63.5269 48.4993 L 63.6726 48.4063 L 63.9083 48.3071 L 64.1997 48.2327 L 64.5191 48.2017 L 65.0307 48.2699 L 65.3718 48.4714 L 65.5609 48.797 L 65.6198 49.2528 L 65.6198 51.1348 M 65.1113 49.8605 L 64.6741 49.8605 L 64.3083 49.8977 L 64.0509 50.0031 L 63.899 50.1705 L 63.8525 50.3938 L 63.9889 50.741 L 64.3765 50.8682 L 64.7485 50.7658 L 65.1113 50.4527 L 65.1113 49.8605 M 68.5654 50.7069 L 68.5623 50.8 L 68.5499 50.8651 L 68.5313 50.9116 L 68.4816 50.9705 L 68.3514 51.0666 L 68.1406 51.1689 L 67.8894 51.2402 L 67.6073 51.2681 L 67.074 51.1689 L 66.6833 50.8806 L 66.4446 50.4124 L 66.3639 49.7706 L 66.4632 49.0636 L 66.7391 48.5768 L 67.1515 48.2978 L 67.6662 48.2048 L 67.9235 48.2296 L 68.1561 48.2947 L 68.3421 48.3877 L 68.463 48.4776 L 68.5127 48.5365 L 68.5375 48.5892 L 68.5499 48.6543 L 68.553 48.7474 L 68.5251 48.9179 L 68.4568 48.9644 L 68.3483 48.9148 L 68.1964 48.8001 L 67.97 48.6884 L 67.66 48.6357 L 67.3337 48.707 L 67.0926 48.921 L 66.8972 49.7426 L 66.9469 50.217 L 67.0988 50.555 L 67.3406 50.7596 L 67.6724 50.8248 L 67.9825 50.7689 L 68.2119 50.648 L 68.3762 50.5271 L 68.4816 50.4713 L 68.5189 50.4837 L 68.5437 50.5271 L 68.5592 50.6015 L 68.5654 50.7069 L 68.5654 50.7069 M 73.7433 51.0201 L 73.7681 51.1317 L 73.7464 51.1937 L 73.6627 51.2216 L 73.5108 51.2278 L 73.3558 51.2216 L 73.2689 51.2092 L 73.2255 51.1782 L 73.2007 51.1317 L 72.8566 50.155 L 71.1884 50.155 L 70.8598 51.1193 L 70.835 51.1689 L 70.7885 51.203 L 70.7047 51.2216 L 70.5652 51.2278 L 70.4164 51.2185 L 70.3358 51.1906 L 70.3141 51.1286 L 70.342 51.017 L 71.6876 47.2901 L 71.7186 47.2343 L 71.7775 47.2002 L 71.8768 47.1847 L 72.0318 47.1785 L 72.1961 47.1847 L 72.3015 47.2002 L 72.3636 47.2374 L 72.3977 47.2932 L 73.7433 51.0201 M 72.0163 47.7304 L 72.0132 47.7304 L 71.3218 49.7302 L 72.717 49.7302 L 72.0163 47.7304 M 76.106 50.3721 L 76.0254 50.7534 L 75.8021 51.0356 L 75.4549 51.2092 L 75.0115 51.2681 L 74.7262 51.2433 L 74.4844 51.1875 L 74.3045 51.1131 L 74.196 51.0418 L 74.1464 50.955 L 74.1309 50.8031 L 74.1371 50.7038 L 74.1526 50.6387 L 74.1774 50.6046 L 74.2177 50.5922 L 74.317 50.6356 L 74.4813 50.7255 L 74.7138 50.8186 L 75.0208 50.8589 L 75.2564 50.831 L 75.4394 50.7504 L 75.5572 50.6108 L 75.6006 50.4124 L 75.5386 50.2139 L 75.3805 50.0713 L 75.1572 49.9628 L 74.8999 49.8605 L 74.6425 49.7427 L 74.4193 49.5783 L 74.258 49.3489 L 74.1991 49.0295 L 74.2611 48.7164 L 74.4534 48.4528 L 74.7696 48.2699 L 75.2161 48.2017 L 75.4394 48.2203 L 75.6409 48.2668 L 75.7928 48.3288 L 75.889 48.3846 L 75.9324 48.428 L 75.9479 48.4714 L 75.9572 48.5272 L 75.9634 48.611 L 75.9572 48.704 L 75.9417 48.766 L 75.9169 48.8032 L 75.8828 48.8125 L 75.8021 48.7784 L 75.6657 48.7071 L 75.4673 48.6327 L 75.2099 48.5986 L 74.9805 48.6296 L 74.8162 48.7133 L 74.72 48.8404 L 74.689 49.0016 L 74.751 49.2063 L 74.9123 49.3489 L 75.1386 49.4605 L 75.396 49.5628 L 75.6564 49.6807 L 75.8859 49.8388 L 76.044 50.062 L 76.106 50.3721 L 76.106 50.3721 M 77.3493 51.1317 L 77.3369 51.1751 L 77.2966 51.203 L 77.2191 51.2216 L 77.092 51.2278 L 76.9679 51.2216 L 76.8873 51.203 L 76.847 51.1751 L 76.8377 51.1317 L 76.8377 48.3412 L 76.847 48.3009 L 76.8873 48.2699 L 76.9679 48.2513 L 77.092 48.2451 L 77.2191 48.2513 L 77.2966 48.2699 L 77.3369 48.3009 L 77.3493 48.3412 L 77.3493 51.1317 M 77.4082 47.3986 L 77.34 47.6436 L 77.0889 47.7087 L 76.8408 47.6467 L 76.7757 47.4048 L 76.8439 47.1599 L 77.0951 47.0948 L 77.34 47.1599 L 77.4082 47.3986 L 77.4082 47.3986 M 82.4343 51.1317 L 82.4219 51.1751 L 82.3816 51.203 L 82.304 51.2216 L 82.18 51.2278 L 82.0529 51.2216 L 81.9723 51.203 L 81.932 51.1751 L 81.9196 51.1317 L 81.9196 49.4357 L 81.8886 49.1132 L 81.7893 48.8621 L 81.6157 48.7009 L 81.3677 48.645 L 81.0111 48.7815 L 80.6204 49.1814 L 80.6204 51.1317 L 80.608 51.1751 L 80.5646 51.203 L 80.4871 51.2216 L 80.3631 51.2278 L 80.2391 51.2216 L 80.1584 51.203 L 80.1181 51.1751 L 80.1088 51.1317 L 80.1088 49.4357 L 80.0747 49.1132 L 79.9724 48.8621 L 79.7988 48.7009 L 79.5538 48.645 L 79.1972 48.7815 L 78.8066 49.1814 L 78.8066 51.1317 L 78.7942 51.1751 L 78.7539 51.203 L 78.6764 51.2216 L 78.5492 51.2278 L 78.4252 51.2216 L 78.3446 51.203 L 78.3043 51.1751 L 78.295 51.1317 L 78.295 48.3412 L 78.3043 48.3009 L 78.3415 48.2699 L 78.4128 48.2513 L 78.5275 48.2451 L 78.6391 48.2513 L 78.7105 48.2699 L 78.7446 48.3009 L 78.757 48.3412 L 78.757 48.7102 L 79.2128 48.3257 L 79.6623 48.2017 L 79.9724 48.242 L 80.2173 48.3567 L 80.3972 48.5303 L 80.5212 48.7536 L 80.7847 48.4962 L 81.0266 48.3257 L 81.2529 48.2327 L 81.4762 48.2017 L 81.9289 48.2978 L 82.2234 48.5489 L 82.3847 48.921 L 82.4343 49.3675 L 82.4343 51.1317 M 85.9627 49.7054 L 85.8728 50.3349 L 85.6031 50.8279 L 85.1566 51.1534 L 84.5365 51.2681 L 83.935 51.1658 L 83.5102 50.8682 L 83.2559 50.3938 L 83.1722 49.7613 L 83.259 49.1349 L 83.5257 48.6388 L 83.9722 48.3164 L 84.5954 48.2017 L 85.1938 48.304 L 85.6217 48.6016 L 85.8759 49.076 L 85.9627 49.7054 L 85.9627 49.7054 M 85.4232 49.7396 L 85.3798 49.3117 L 85.2434 48.9582 L 84.983 48.7195 L 84.5737 48.6295 L 84.183 48.7102 L 83.9164 48.9396 L 83.7582 49.2869 L 83.7086 49.7271 L 83.7489 50.1581 L 83.8885 50.5116 L 84.152 50.7503 L 84.5613 50.8372 L 84.9489 50.7565 L 85.2186 50.5302 L 85.3736 50.1829 L 85.4232 49.7395 L 85.4232 49.7396 M 88.9765 48.335 L 88.9734 48.3629 L 88.9703 48.3908 L 88.961 48.4249 L 88.9517 48.4652 L 87.9998 51.1162 L 87.9657 51.172 L 87.9068 51.2061 L 87.8045 51.2216 L 87.6495 51.2278 L 87.4944 51.2216 L 87.3921 51.203 L 87.3332 51.1689 L 87.2991 51.1162 L 86.3503 48.4652 L 86.3286 48.4001 L 86.3193 48.3598 L 86.3193 48.335 L 86.3317 48.2916 L 86.372 48.2637 L 86.4495 48.2482 L 86.5705 48.2451 L 86.7131 48.2513 L 86.7968 48.2668 L 86.8402 48.2978 L 86.8681 48.3443 L 87.6557 50.645 L 87.6681 50.6822 L 87.6774 50.645 L 88.4556 48.3443 L 88.4773 48.2978 L 88.5207 48.2668 L 88.6014 48.2513 L 88.7378 48.2451 L 88.8556 48.2482 L 88.9269 48.2637 L 88.9641 48.2947 L 88.9765 48.335 L 88.9765 48.335"
       id="text215"
       aria-label="Isaac Asimov" />
  </g>
</svg>
